<svg width="180" height="60" viewBox="0 0 180 60" fill="none" xmlns="http://www.w3.org/2000/svg">
<path d="M165.202 0.000195H14.302C13.752 0.000195 13.2085 0.000195 12.6599 0.003195C12.2007 0.006195 11.7451 0.01491 11.2815 0.022245C10.2743 0.0340977 9.26941 0.122709 8.27565 0.28731C7.28329 0.455494 6.32201 0.772569 5.42433 1.22781C4.52775 1.6869 3.70852 2.28345 2.99636 2.9958C2.28045 3.70615 1.68369 4.52722 1.22903 5.42743C0.7731 6.32586 0.456961 7.2886 0.291525 8.28242C0.124516 9.27497 0.0346476 10.279 0.022725 11.2854C0.008805 11.7453 0.007335 12.2067 0 12.6667V47.3381C0.007335 47.8038 0.008805 48.255 0.022725 48.7209C0.0346512 49.7273 0.12452 50.7313 0.291525 51.7238C0.456504 52.7182 0.772662 53.6815 1.22903 54.5802C1.68349 55.4775 2.28033 56.2953 2.99636 57.0017C3.70582 57.7172 4.52558 58.3142 5.42433 58.7697C6.322 59.2262 7.28318 59.5452 8.27565 59.7159C9.26958 59.8792 10.2743 59.9679 11.2815 59.9811C11.7451 59.9913 12.2007 59.9972 12.6599 59.9972C13.2085 60.0002 13.752 60.0002 14.302 60.0002H165.202C165.741 60.0002 166.289 60.0002 166.828 59.9972C167.285 59.9972 167.754 59.9913 168.211 59.9811C169.216 59.9686 170.219 59.8799 171.211 59.7159C172.207 59.544 173.171 59.2251 174.073 58.7697C174.971 58.3139 175.79 57.717 176.499 57.0017C177.213 56.2925 177.811 55.4754 178.272 54.5802C178.724 53.6808 179.038 52.7176 179.2 51.7238C179.367 50.7311 179.46 49.7274 179.479 48.7209C179.484 48.255 179.484 47.8038 179.484 47.3381C179.496 46.7931 179.496 46.2512 179.496 45.6974V14.3044C179.496 13.7551 179.496 13.2102 179.484 12.6667C179.484 12.2067 179.484 11.7453 179.479 11.2854C179.46 10.2788 179.367 9.27505 179.2 8.28236C179.037 7.28912 178.724 6.32645 178.272 5.42737C177.346 3.62299 175.877 2.15423 174.073 1.22767C173.171 0.773546 172.207 0.456556 171.211 0.287175C170.219 0.121849 169.216 0.0332066 168.211 0.022035C167.754 0.014715 167.285 0.005925 166.828 0.003C166.289 0 165.741 0.000195 165.202 0.000195Z" fill="#A6A6A6"/>
<path d="M12.6673 58.6875C12.2103 58.6875 11.7643 58.6816 11.3109 58.6714C10.3715 58.6592 9.43441 58.5774 8.50716 58.4268C7.64254 58.2779 6.80496 58.0009 6.02205 57.605C5.24631 57.2123 4.53877 56.6974 3.92655 56.08C3.30546 55.47 2.78837 54.7624 2.39578 53.9853C1.99886 53.2032 1.72417 52.3648 1.58128 51.4995C1.42697 50.5697 1.34348 49.6295 1.33153 48.687C1.32202 48.3707 1.30957 47.3174 1.30957 47.3174V12.6665C1.30957 12.6665 1.32283 11.6294 1.33161 11.3247C1.34304 10.3837 1.42605 9.44498 1.5799 8.5166C1.72306 7.64888 1.99796 6.80812 2.39509 6.02344C2.78624 5.24692 3.30045 4.53879 3.9178 3.92652C4.53445 3.30843 5.24425 2.79091 6.02131 2.39281C6.80243 1.99814 7.63842 1.7231 8.50129 1.57691C9.43159 1.42475 10.372 1.34249 11.3146 1.33082L12.668 1.3125H166.821L168.191 1.33155C169.125 1.34265 170.056 1.42417 170.978 1.57543C171.85 1.72346 172.694 2.00042 173.484 2.39721C175.041 3.19948 176.308 4.46874 177.107 6.02711C177.498 6.80637 177.768 7.64026 177.91 8.50048C178.065 9.43649 178.153 10.3826 178.17 11.3313C178.175 11.7561 178.175 12.2124 178.175 12.6665C178.187 13.229 178.187 13.7644 178.187 14.3042V45.6972C178.187 46.2421 178.187 46.7739 178.175 47.31C178.175 47.7978 178.175 48.2446 178.169 48.7045C178.151 49.6363 178.066 50.5655 177.913 51.4848C177.773 52.3564 177.499 53.2013 177.103 53.9898C176.707 54.7584 176.193 55.4599 175.579 56.0683C174.966 56.689 174.258 57.2069 173.48 57.6021C172.692 58.0011 171.849 58.2791 170.978 58.4268C170.051 58.5782 169.114 58.66 168.174 58.6714C167.735 58.6816 167.275 58.6875 166.828 58.6875L165.202 58.6905L12.6673 58.6875Z" fill="black"/>
<path d="M37.1534 30.451C37.1695 29.199 37.5021 27.9715 38.1201 26.8825C38.7381 25.7936 39.6216 24.8787 40.6882 24.2229C40.0106 23.2552 39.1167 22.4588 38.0774 21.897C37.0382 21.3351 35.8823 21.0234 34.7015 20.9864C32.1826 20.722 29.7407 22.4937 28.4571 22.4937C27.1487 22.4937 25.1725 21.0127 23.0444 21.0564C21.6679 21.1009 20.3263 21.5012 19.1505 22.2183C17.9747 22.9354 17.0047 23.9448 16.335 25.1482C13.434 30.1709 15.5979 37.5525 18.3768 41.6124C19.7671 43.6004 21.3921 45.8211 23.5182 45.7423C25.5988 45.656 26.3759 44.4156 28.8873 44.4156C31.3755 44.4156 32.1045 45.7423 34.2738 45.6923C36.5064 45.656 37.913 43.6954 39.2546 41.6885C40.2536 40.272 41.0223 38.7064 41.5322 37.0498C40.2352 36.5012 39.1283 35.5829 38.3496 34.4095C37.5709 33.236 37.1549 31.8593 37.1534 30.451Z" fill="white"/>
<path d="M33.0559 18.3163C34.2732 16.855 34.8729 14.9768 34.7277 13.0804C32.8679 13.2757 31.15 14.1646 29.9163 15.5698C29.3131 16.2563 28.8511 17.055 28.5567 17.9201C28.2623 18.7853 28.1414 19.7 28.2007 20.6119C29.1309 20.6215 30.0512 20.4199 30.8922 20.0222C31.7332 19.6246 32.473 19.0413 33.0559 18.3163Z" fill="white"/>
<path d="M63.4535 40.7095H56.3534L54.6483 45.7442H51.641L58.3661 27.1172H61.4906L68.2157 45.7442H65.1571L63.4535 40.7095ZM57.0887 38.3862H62.7167L59.9423 30.2153H59.8647L57.0887 38.3862Z" fill="white"/>
<path d="M82.7397 38.9546C82.7397 43.1748 80.4809 45.8862 77.0722 45.8862C76.2087 45.9314 75.35 45.7325 74.5943 45.3123C73.8386 44.8921 73.2165 44.2676 72.7992 43.5102H72.7347V50.2368H69.9471V32.1636H72.6454V34.4224H72.6967C73.1331 33.6687 73.7657 33.0474 74.5272 32.6246C75.2886 32.2018 76.1504 31.9934 77.0209 32.0215C80.4676 32.0215 82.7397 34.7461 82.7397 38.9546ZM79.8744 38.9546C79.8744 36.2051 78.4535 34.3975 76.2856 34.3975C74.1557 34.3975 72.7231 36.2432 72.7231 38.9546C72.7231 41.6909 74.1557 43.5234 76.2856 43.5234C78.4535 43.5234 79.8744 41.729 79.8744 38.9546Z" fill="white"/>
<path d="M97.6869 38.9546C97.6869 43.1748 95.4281 45.8862 92.0195 45.8862C91.156 45.9314 90.2972 45.7325 89.5415 45.3123C88.7858 44.8921 88.1638 44.2676 87.7465 43.5102H87.682V50.2368H84.8944V32.1636H87.5926V34.4224H87.6439C88.0803 33.6687 88.7129 33.0474 89.4744 32.6246C90.2358 32.2019 91.0977 31.9934 91.9681 32.0215C95.415 32.0215 97.6869 34.7461 97.6869 38.9546ZM94.8217 38.9546C94.8217 36.2051 93.4008 34.3975 91.2328 34.3975C89.1029 34.3975 87.6703 36.2432 87.6703 38.9546C87.6703 41.6909 89.1029 43.5234 91.2328 43.5234C93.4008 43.5234 94.8217 41.729 94.8217 38.9546Z" fill="white"/>
<path d="M107.566 40.5542C107.772 42.4014 109.567 43.6142 112.019 43.6142C114.369 43.6142 116.059 42.4013 116.059 40.7358C116.059 39.29 115.039 38.4243 112.625 37.831L110.211 37.2494C106.791 36.4233 105.203 34.8237 105.203 32.228C105.203 29.0141 108.004 26.8066 111.981 26.8066C115.917 26.8066 118.615 29.0141 118.706 32.228H115.892C115.724 30.3691 114.187 29.247 111.941 29.247C109.696 29.247 108.159 30.3823 108.159 32.0346C108.159 33.3515 109.141 34.1264 111.541 34.7196L113.594 35.2235C117.415 36.1273 119.003 37.6625 119.003 40.3871C119.003 43.8719 116.227 46.0546 111.812 46.0546C107.682 46.0546 104.892 43.9232 104.712 40.5541L107.566 40.5542Z" fill="white"/>
<path d="M125.019 28.9497V32.1636H127.602V34.3711H125.019V41.8579C125.019 43.021 125.536 43.563 126.672 43.563C126.978 43.5576 127.284 43.5361 127.589 43.4985V45.6928C127.078 45.7882 126.56 45.8314 126.04 45.8217C123.291 45.8217 122.219 44.789 122.219 42.1552V34.3711H120.244V32.1636H122.219V28.9497H125.019Z" fill="white"/>
<path d="M129.098 38.9546C129.098 34.6817 131.614 31.9966 135.538 31.9966C139.476 31.9966 141.981 34.6816 141.981 38.9546C141.981 43.2393 139.489 45.9126 135.538 45.9126C131.589 45.9126 129.098 43.2393 129.098 38.9546ZM139.14 38.9546C139.14 36.0235 137.797 34.2935 135.538 34.2935C133.28 34.2935 131.938 36.0366 131.938 38.9546C131.938 41.8975 133.28 43.6143 135.538 43.6143C137.797 43.6143 139.14 41.8975 139.14 38.9546Z" fill="white"/>
<path d="M144.279 32.1636H146.938V34.4751H147.002C147.182 33.7531 147.605 33.1151 148.2 32.6683C148.795 32.2215 149.526 31.9931 150.269 32.0215C150.59 32.0203 150.911 32.0552 151.224 32.1255V34.7329C150.819 34.609 150.395 34.5521 149.972 34.5644C149.567 34.548 149.163 34.6194 148.788 34.7737C148.413 34.9281 148.076 35.1617 147.8 35.4585C147.524 35.7553 147.316 36.1084 147.189 36.4934C147.063 36.8784 147.021 37.2862 147.067 37.6889V45.7441H144.279L144.279 32.1636Z" fill="white"/>
<path d="M164.077 41.7554C163.702 44.2207 161.301 45.9126 158.229 45.9126C154.278 45.9126 151.826 43.2656 151.826 39.019C151.826 34.7593 154.291 31.9966 158.112 31.9966C161.869 31.9966 164.232 34.5776 164.232 38.6953V39.6504H154.64V39.8188C154.596 40.3186 154.658 40.8221 154.824 41.2959C154.989 41.7697 155.253 42.2028 155.599 42.5667C155.944 42.9305 156.363 43.2166 156.828 43.4061C157.292 43.5955 157.792 43.684 158.293 43.6655C158.952 43.7272 159.613 43.5747 160.178 43.2305C160.743 42.8864 161.182 42.369 161.43 41.7554L164.077 41.7554ZM154.653 37.7021H161.443C161.468 37.2528 161.4 36.803 161.243 36.3812C161.086 35.9594 160.843 35.5746 160.53 35.251C160.218 34.9273 159.841 34.6718 159.425 34.5005C159.009 34.3291 158.562 34.2457 158.112 34.2554C157.658 34.2527 157.208 34.3399 156.788 34.512C156.368 34.6841 155.986 34.9377 155.664 35.2582C155.343 35.5786 155.088 35.9596 154.914 36.379C154.741 36.7985 154.652 37.2482 154.653 37.7021Z" fill="white"/>
<path d="M55.1074 16.8801H56.3042C56.5102 16.9058 56.7193 16.8885 56.9183 16.8293C57.1173 16.7702 57.3019 16.6704 57.4604 16.5364C57.619 16.4023 57.748 16.2369 57.8395 16.0505C57.9309 15.8641 57.9827 15.6608 57.9917 15.4534C57.9917 14.6279 57.3706 14.0947 56.3174 14.0947C56.1063 14.0652 55.8915 14.0783 55.6855 14.1333C55.4796 14.1882 55.2868 14.2838 55.1184 14.4145C54.9501 14.5451 54.8096 14.7082 54.7053 14.8941C54.601 15.0799 54.535 15.2848 54.5112 15.4966H53.1972C53.2198 15.1121 53.3214 14.7365 53.4954 14.3929C53.6695 14.0494 53.9125 13.7454 54.2092 13.4999C54.5058 13.2543 54.8499 13.0725 55.2199 12.9656C55.5899 12.8588 55.9779 12.8293 56.3598 12.8789C58.122 12.8789 59.3628 13.8655 59.3628 15.2856C59.367 15.7614 59.2078 16.2242 58.9119 16.5968C58.6159 16.9693 58.2012 17.2291 57.7368 17.3328V17.4382C58.2873 17.4627 58.8058 17.704 59.1788 18.1096C59.5518 18.5152 59.7491 19.0519 59.7275 19.6025C59.6868 19.9984 59.5675 20.3821 59.3765 20.7312C59.1855 21.0803 58.9268 21.3878 58.6155 21.6356C58.3041 21.8835 57.9465 22.0666 57.5634 22.1745C57.1804 22.2823 56.7797 22.3125 56.3848 22.2634C55.989 22.3174 55.5865 22.2911 55.2012 22.1862C54.8158 22.0812 54.4556 21.8998 54.1418 21.6526C53.8281 21.4055 53.5674 21.0977 53.3751 20.7476C53.1829 20.3976 53.0631 20.0124 53.0229 19.615H54.3574C54.438 20.4712 55.2246 21.0235 56.3848 21.0235C57.5449 21.0235 58.3022 20.4032 58.3022 19.5286C58.3022 18.6417 57.5889 18.0953 56.3423 18.0953H55.1074V16.8801Z" fill="white"/>
<path d="M61.2437 20.1365C61.2437 18.9207 62.1504 18.2197 63.7559 18.1201L65.5854 18.0147V17.4317C65.5854 16.7183 65.1152 16.3154 64.2026 16.3154C63.4585 16.3154 62.9443 16.5886 62.7949 17.0662H61.5044C61.6406 15.906 62.7334 15.1619 64.2656 15.1619C65.959 15.1619 66.9141 16.0049 66.9141 17.4317V22.0466H65.6294V21.0974H65.5239C65.3099 21.4379 65.0093 21.7155 64.6528 21.9018C64.2964 22.0881 63.8969 22.1765 63.4951 22.1579C63.2116 22.1874 62.925 22.1572 62.6538 22.0691C62.3827 21.9811 62.133 21.8372 61.9209 21.6467C61.7088 21.4563 61.5389 21.2235 61.4223 20.9634C61.3056 20.7032 61.2448 20.4216 61.2437 20.1365ZM65.5854 19.5593V18.9946L63.936 19.1001C63.0058 19.1624 62.5839 19.4788 62.5839 20.0742C62.5839 20.6821 63.1113 21.0359 63.8364 21.0359C64.0489 21.0574 64.2635 21.036 64.4675 20.9728C64.6715 20.9097 64.8608 20.8062 65.024 20.6684C65.1871 20.5306 65.3209 20.3615 65.4174 20.1709C65.5139 19.9804 65.571 19.7724 65.5854 19.5593Z" fill="white"/>
<path d="M70.4517 16.4143V22.0466H69.1187V15.2922H73.566V16.4142L70.4517 16.4143Z" fill="white"/>
<path d="M81.6445 18.6665C81.6445 20.8125 80.5591 22.158 78.854 22.158C78.4355 22.1866 78.0174 22.095 77.6492 21.894C77.2809 21.693 76.9778 21.3909 76.7754 21.0234H76.6699V24.2922H75.3369V15.2922H76.6201V16.4085H76.7197C76.9257 16.0282 77.2329 15.7122 77.6072 15.4954C77.9815 15.2787 78.4084 15.1696 78.8408 15.1802C80.5591 15.1802 81.6445 16.5198 81.6445 18.6665ZM80.2734 18.6665C80.2734 17.2398 79.5981 16.3777 78.4688 16.3777C77.3468 16.3777 76.645 17.2581 76.645 18.6724C76.645 20.0801 77.3467 20.9612 78.4629 20.9612C79.5981 20.9612 80.2734 20.0991 80.2734 18.6665Z" fill="white"/>
<path d="M83.4199 24.4658V23.3181C83.5641 23.3364 83.7095 23.3448 83.8549 23.343C84.1389 23.364 84.4206 23.2795 84.6461 23.1055C84.8716 22.9315 85.0248 22.6804 85.0765 22.4004L85.1761 22.0715L82.7313 15.2922H84.183L85.8764 20.6572H85.9819L87.6694 15.2922H89.0829L86.5649 22.3257C85.9877 23.9692 85.3491 24.4966 83.9721 24.4966C83.8608 24.4966 83.5444 24.4841 83.4199 24.4658Z" fill="white"/>
<path d="M90.1216 20.1299H91.4487C91.5791 20.7254 92.1372 21.0359 92.918 21.0359C93.8057 21.0359 94.3506 20.6448 94.3506 20.0369C94.3506 19.3858 93.8613 19.0752 92.918 19.0752H91.9072V18.0396H92.9004C93.7061 18.0396 94.1162 17.7298 94.1162 17.1651C94.1162 16.6692 93.7192 16.2906 92.9004 16.2906C92.1548 16.2906 91.6099 16.607 91.5234 17.1402H90.2388C90.3348 16.5275 90.6675 15.977 91.1652 15.607C91.663 15.2371 92.286 15.0772 92.9004 15.1619C94.5059 15.1619 95.4243 15.8877 95.4243 17.0289C95.4318 17.3466 95.33 17.6573 95.1359 17.909C94.9418 18.1607 94.6671 18.3382 94.3579 18.4117V18.5171C94.7261 18.5646 95.064 18.7456 95.3076 19.0258C95.5511 19.3059 95.6834 19.6657 95.6792 20.0369C95.6792 21.3209 94.5864 22.1704 92.918 22.1704C91.4429 22.1704 90.2446 21.4944 90.1216 20.1299Z" fill="white"/>
<path d="M97.5989 22.0466V15.2922H98.9202V19.938H99.0256L102.138 15.2922H103.46V22.0466H102.138V17.376H102.039L98.9202 22.0467L97.5989 22.0466Z" fill="white"/>
<path d="M110.738 16.4143H108.611V22.0466H107.277V16.4143H105.15V15.2923H110.738V16.4143Z" fill="white"/>
<path d="M117.919 20.2229C117.738 20.8402 117.345 21.374 116.81 21.7312C116.274 22.0884 115.631 22.2461 114.991 22.177C114.546 22.1887 114.104 22.1035 113.695 21.9272C113.286 21.7509 112.921 21.4878 112.624 21.1561C112.327 20.8244 112.106 20.432 111.976 20.0063C111.846 19.5806 111.81 19.1316 111.871 18.6907C111.812 18.2483 111.848 17.7984 111.978 17.3714C112.108 16.9444 112.327 16.5503 112.623 16.2157C112.918 15.881 113.282 15.6138 113.689 15.432C114.097 15.2502 114.539 15.158 114.985 15.1618C116.865 15.1618 118 16.4458 118 18.5668V19.032H113.23V19.1067C113.209 19.3546 113.24 19.6042 113.321 19.8395C113.402 20.0747 113.532 20.2904 113.701 20.4726C113.871 20.6548 114.076 20.7996 114.305 20.8976C114.534 20.9956 114.78 21.0447 115.029 21.0417C115.348 21.0798 115.67 21.0223 115.956 20.8765C116.242 20.7307 116.478 20.5032 116.635 20.2228L117.919 20.2229ZM113.23 18.0461H116.64C116.657 17.8196 116.626 17.592 116.55 17.378C116.474 17.164 116.354 16.9683 116.197 16.8035C116.041 16.6388 115.852 16.5085 115.642 16.4212C115.432 16.3338 115.206 16.2913 114.979 16.2964C114.749 16.2933 114.52 16.3364 114.306 16.4232C114.092 16.51 113.898 16.6388 113.735 16.8019C113.572 16.9651 113.443 17.1592 113.357 17.3729C113.27 17.5866 113.227 17.8155 113.23 18.0461Z" fill="white"/>
<path d="M123.571 15.2922H126.616C127.937 15.2922 128.712 15.9617 128.712 17.0097C128.714 17.3423 128.602 17.6655 128.394 17.9252C128.187 18.1849 127.896 18.3654 127.571 18.4365V18.5419C127.966 18.5669 128.335 18.7423 128.604 19.0321C128.873 19.3219 129.02 19.7039 129.015 20.0991C129.015 21.2775 128.129 22.0466 126.647 22.0466H123.571V15.2922ZM124.892 16.3154V18.0644H126.213C127.019 18.0644 127.404 17.7546 127.404 17.1833C127.404 16.6567 127.069 16.3154 126.361 16.3154L124.892 16.3154ZM124.892 19.0444V21.0234H126.472C127.261 21.0234 127.682 20.6755 127.682 20.0369C127.682 19.3609 127.205 19.0444 126.305 19.0444L124.892 19.0444Z" fill="white"/>
</svg>
